<svg width="57" height="47" viewBox="0 0 57 47" fill="none" xmlns="http://www.w3.org/2000/svg">
<path d="M7.125 11.75L14.25 3.91666H42.75L49.875 11.75M7.125 11.75V39.1667C7.125 40.2054 7.62544 41.2016 8.51624 41.9362C9.40704 42.6707 10.6152 43.0833 11.875 43.0833H45.125C46.3848 43.0833 47.593 42.6707 48.4838 41.9362C49.3746 41.2016 49.875 40.2054 49.875 39.1667V11.75M7.125 11.75H49.875M38 19.5833C38 21.6609 36.9991 23.6533 35.2175 25.1223C33.4359 26.5914 31.0196 27.4167 28.5 27.4167C25.9804 27.4167 23.5641 26.5914 21.7825 25.1223C20.0009 23.6533 19 21.6609 19 19.5833" stroke="#1E1E1E" stroke-width="4" stroke-linecap="round" stroke-linejoin="round"/>
</svg>
